<svg width="38" height="100" viewBox="0 0 38 100" fill="none" xmlns="http://www.w3.org/2000/svg">
<path d="M11.0745 2.94896C17.6479 11.1364 18.9679 21.317 19.2583 32.2028L19.2847 32.1721C19.2545 32.7502 19.233 33.3533 19.2108 33.9736C19.1554 35.5248 19.0962 37.1833 18.8887 38.8263C18.3457 43.2414 17.7887 47.6565 17.2315 52.0739C16.4612 58.1798 15.6905 64.2901 14.9552 70.4106C14.9277 70.6237 14.8851 70.8543 14.841 71.0927C14.6313 72.2268 14.389 73.537 15.5888 73.9677C16.8094 74.4243 17.1383 73.2801 17.4395 72.2324C17.5226 71.9432 17.6036 71.6613 17.7007 71.4225C22.9014 58.3902 24.8814 44.5605 24.3798 30.3322C24.0366 20.9489 22.083 11.903 17.0144 4.20622C15.8528 2.45835 14.612 0.741116 12.6585 0.158493C11.9457 -0.0561579 11.1273 -0.178804 10.6257 0.649134C10.0977 1.5384 10.5465 2.30501 11.0745 2.94896Z" fill="#F05658"/>
<path d="M0.0527617 62.2988C0.0571106 62.3745 0.0615393 62.4515 0.065968 62.5299H0.0923629C0.608671 65.2332 1.07549 68.0305 1.55127 70.8814C2.70538 77.7971 3.91218 85.0285 6.00583 91.9985C8.43457 100.186 13.4504 101.474 18.6247 95.1875C26.3333 85.8042 32.6428 75.317 36.7083 63.1739C36.8336 62.7927 37.0155 62.3834 37.2025 61.9626C37.8432 60.521 38.544 58.9439 37.2363 57.8996C35.9034 56.8278 34.8891 58.1611 33.9583 59.3847C33.6907 59.7364 33.4301 60.079 33.1708 60.3528C27.934 65.8682 23.5361 72.2236 19.142 78.5734C17.5996 80.8023 16.0576 83.0306 14.48 85.2216C12.8961 87.4294 12.2889 87.3068 11.5233 84.6697C10.9132 82.6002 10.3456 80.5134 9.77826 78.427C8.50441 73.7427 7.23121 69.0609 5.47784 64.5845C4.87065 63.0206 4.13147 61.518 3.33948 60.1074C2.7851 59.1262 1.83472 58.6663 0.831542 59.1262C-0.104269 59.5669 -0.0465837 60.5705 0.0527617 62.2988Z" fill="#F05658"/>
</svg>
