<svg width="24" height="29" viewBox="0 0 24 29" fill="none" xmlns="http://www.w3.org/2000/svg">
<path d="M10.05 7.53028L4.03002 11.4603C2.10002 12.7203 2.10002 15.5403 4.03002 16.8003L10.05 20.7303C11.13 21.4403 12.91 21.4403 13.99 20.7303L19.98 16.8003C21.9 15.5403 21.9 12.7303 19.98 11.4703L13.99 7.54028C12.91 6.82028 11.13 6.82028 10.05 7.53028Z" stroke="#171717" stroke-width="1.5" stroke-linecap="round" stroke-linejoin="round"/>
<path d="M5.63 18.0801L5.62 22.7701C5.62 24.0401 6.6 25.4001 7.8 25.8001L10.99 26.8601C11.54 27.0401 12.45 27.0401 13.01 26.8601L16.2 25.8001C17.4 25.4001 18.38 24.0401 18.38 22.7701V18.1301" stroke="#171717" stroke-width="1.5" stroke-linecap="round" stroke-linejoin="round"/>
<path d="M21.4 20V14" stroke="#171717" stroke-width="1.5" stroke-linecap="round" stroke-linejoin="round"/>
</svg>
