<svg width="45" height="58" viewBox="0 0 45 58" fill="none" xmlns="http://www.w3.org/2000/svg">
<path d="M12.2395 46.1818C12.7371 45.2199 13.2042 44.2354 13.7366 43.2971C18.3908 35.1283 23.8961 27.6545 29.7848 20.4981C33.808 15.605 38.0024 10.882 42.4518 6.43296C42.8435 6.04004 43.29 5.12722 43.8427 5.6429C44.4208 6.18449 43.6033 6.74485 43.2918 7.19734C40.5108 11.2083 37.639 15.1474 34.5993 18.9412C27.9544 27.2373 21.6612 35.8326 15.7019 44.7081C15.104 45.6004 14.411 46.4197 13.7307 47.2423C13.3937 47.6496 12.9558 47.8716 12.4753 47.4904C12.0487 47.1474 12.1363 46.6794 12.2395 46.1818Z" fill="#F05658"/>
<path d="M37.7614 44.0054C37.4277 44.2596 37.0272 44.5924 36.6033 44.8903C33.2313 47.2493 29.6255 49.1619 26.1355 51.2925C24.7648 52.1312 23.4016 52.9767 22.0202 53.7837C21.5845 54.0352 21.0507 54.386 20.6445 53.774C20.2797 53.2162 20.6351 52.7271 20.9562 52.2915C21.4806 51.5869 22.1458 51.0491 22.8492 50.5792C27.2174 47.6779 31.806 45.2628 36.6877 43.5263C36.9446 43.4349 37.2236 43.3445 37.4874 43.3415C37.7774 43.3406 37.887 43.5667 37.7614 44.0054Z" fill="#F05658"/>
<path d="M4.48401 27.5427C4.85076 27.7159 4.89696 28.065 4.91155 28.3961C4.95542 29.4088 5.04663 30.429 4.98433 31.4379C4.72946 35.3995 5.13319 39.3079 5.70817 43.2082C5.79913 43.8337 6.16659 44.657 5.258 44.9094C4.43441 45.1409 4.0277 44.4325 3.79871 43.7467C2.71593 40.5168 2.325 37.1654 2.50219 33.7464C2.60004 31.8276 2.98304 29.9692 3.75454 28.2272C3.90802 27.8824 4.07094 27.5353 4.48923 27.5392L4.48401 27.5427Z" fill="#F05658"/>
</svg>
