<svg width="60" height="68" viewBox="0 0 60 68" fill="none" xmlns="http://www.w3.org/2000/svg">
<path d="M38.987 31.5842C40.2887 30.2825 40.2888 28.1719 38.987 26.8702C37.6853 25.5684 35.5747 25.5684 34.273 26.8702L27.8105 33.3326L26.8709 32.393C25.5691 31.0913 23.4586 31.0913 22.1568 32.393C20.8551 33.6948 20.8551 35.8053 22.1568 37.1071L25.4535 40.4037C26.7552 41.7054 28.8658 41.7054 30.1675 40.4037L38.987 31.5842Z" fill="#B1F0AA" fill-opacity="0.52"/>
<path fill-rule="evenodd" clip-rule="evenodd" d="M34.9588 0.956416C31.7759 -0.318806 28.2241 -0.318805 25.0412 0.956416L12.9526 5.7997C12.915 5.81476 12.8777 5.83051 12.8407 5.84693L7.68224 8.13519C3.15817 10.1421 -0.000433877 14.5607 4.47047e-08 19.7062C0.000554169 26.2636 0.473313 37.3627 3.55616 44.9781C5.60599 50.0416 9.29789 54.4304 13.0501 57.9377C16.8292 61.4701 20.8554 64.2795 23.8169 66.1495C27.6119 68.5458 32.3881 68.5458 36.1831 66.1495C39.1446 64.2795 43.1707 61.4701 46.9499 57.9377C50.7021 54.4304 54.394 50.0416 56.4438 44.9781C59.5267 37.3627 59.9994 26.2636 60 19.7062C60.0004 14.5607 56.8418 10.1421 52.3178 8.13519L47.1593 5.84693C47.1223 5.83051 47.085 5.81476 47.0474 5.7997L34.9588 0.956416ZM27.5206 7.14488C29.112 6.50726 30.888 6.50726 32.4794 7.14487L44.5116 11.9656L49.6145 14.2292C51.9105 15.2477 53.3335 17.3902 53.3333 19.7057C53.3328 26.3084 52.8051 36.2001 50.2643 42.4765C48.7244 46.2804 45.7958 49.8909 42.3975 53.0673C39.0262 56.2186 35.3719 58.7772 32.6238 60.5125C31.003 61.5359 28.997 61.5359 27.3762 60.5125C24.6281 58.7772 20.9738 56.2186 17.6025 53.0673C14.2042 49.8909 11.2756 46.2804 9.73568 42.4765C7.19488 36.2001 6.66722 26.3084 6.66667 19.7057C6.66647 17.3902 8.08948 15.2477 10.3855 14.2292L15.4884 11.9656L27.5206 7.14488Z" fill="#B1F0AA" fill-opacity="0.52"/>
</svg>
