<svg width="74" height="67" viewBox="0 0 74 67" fill="none" xmlns="http://www.w3.org/2000/svg">
<path fill-rule="evenodd" clip-rule="evenodd" d="M25.6667 18.3333C21.6166 18.3333 18.3333 21.6166 18.3333 25.6667V41C18.3333 45.0501 21.6166 48.3333 25.6667 48.3333H47.6667C51.7167 48.3333 55 45.0501 55 41V25.6667C55 21.6166 51.7168 18.3333 47.6667 18.3333H25.6667ZM25 25.6667C25 25.2985 25.2985 25 25.6667 25H47.6667C48.0349 25 48.3333 25.2985 48.3333 25.6667V41C48.3333 41.3682 48.0349 41.6667 47.6667 41.6667H25.6667C25.2985 41.6667 25 41.3682 25 41V25.6667Z" fill="#73A8E6" fill-opacity="0.67"/>
<path fill-rule="evenodd" clip-rule="evenodd" d="M51.6667 0C53.5076 0 55 1.49238 55 3.33333V6.76982C59.8668 7.3767 63.919 10.6065 65.6975 15H70C71.8409 15 73.3333 16.4924 73.3333 18.3333C73.3333 20.1743 71.8409 21.6667 70 21.6667H66.6667V25H70C71.8409 25 73.3333 26.4924 73.3333 28.3333C73.3333 30.1743 71.8409 31.6667 70 31.6667H66.6667V35H70C71.8409 35 73.3333 36.4924 73.3333 38.3333C73.3333 40.1743 71.8409 41.6667 70 41.6667H66.6667V45H70C71.8409 45 73.3333 46.4924 73.3333 48.3333C73.3333 50.1743 71.8409 51.6667 70 51.6667H65.6975C64.1264 55.5479 60.7807 58.5211 56.6667 59.5799V63.3333C56.6667 65.1743 55.1743 66.6667 53.3333 66.6667C51.4924 66.6667 50 65.1743 50 63.3333V60H46.6667V63.3333C46.6667 65.1743 45.1743 66.6667 43.3333 66.6667C41.4924 66.6667 40 65.1743 40 63.3333V60H36.6667V63.3333C36.6667 65.1743 35.1743 66.6667 33.3333 66.6667C31.4924 66.6667 30 65.1743 30 63.3333V60H26.6667V63.3333C26.6667 65.1743 25.1743 66.6667 23.3333 66.6667C21.4924 66.6667 20 65.1743 20 63.3333V60C14.4044 60 9.61382 56.5531 7.63586 51.6667H3.33333C1.49238 51.6667 0 50.1743 0 48.3333C0 46.4924 1.49238 45 3.33333 45H6.66667V41.6667H3.33333C1.49238 41.6667 0 40.1743 0 38.3333C0 36.4924 1.49238 35 3.33333 35H6.66667V31.6667H3.33333C1.49238 31.6667 0 30.1743 0 28.3333C0 26.4924 1.49238 25 3.33333 25H6.66667V21.6667H3.33333C1.49238 21.6667 0 20.1743 0 18.3333C0 16.4924 1.49238 15 3.33333 15H7.63586C9.4143 10.6065 13.4665 7.3767 18.3333 6.76982V3.33333C18.3333 1.49238 19.8257 0 21.6667 0C23.5076 0 25 1.49238 25 3.33333V6.66667H28.3333V3.33333C28.3333 1.49238 29.8257 0 31.6667 0C33.5076 0 35 1.49238 35 3.33333V6.66667H38.3333V3.33333C38.3333 1.49238 39.8257 0 41.6667 0C43.5076 0 45 1.49238 45 3.33333V6.66667H48.3333V3.33333C48.3333 1.49238 49.8257 0 51.6667 0ZM60 46.6667C60 50.3486 57.0152 53.3333 53.3333 53.3333H20C16.3181 53.3333 13.3333 50.3486 13.3333 46.6667V20C13.3333 16.3181 16.3181 13.3333 20 13.3333H53.3333C57.0152 13.3333 60 16.3181 60 20V46.6667Z" fill="#73A8E6" fill-opacity="0.67"/>
</svg>
