<svg width="71" height="74" viewBox="0 0 71 74" fill="none" xmlns="http://www.w3.org/2000/svg">
<path fill-rule="evenodd" clip-rule="evenodd" d="M35.4081 16.6106C24.3624 16.6106 15.4081 25.5649 15.4081 36.6106C15.4081 47.6563 24.3624 56.6106 35.4081 56.6106C46.4538 56.6106 55.4081 47.6563 55.4081 36.6106C55.4081 25.5649 46.4538 16.6106 35.4081 16.6106ZM22.0748 36.6106C22.0748 29.2468 28.0443 23.2773 35.4081 23.2773C42.7719 23.2773 48.7414 29.2468 48.7414 36.6106C48.7414 43.9744 42.7719 49.9439 35.4081 49.9439C28.0443 49.9439 22.0748 43.9744 22.0748 36.6106Z" fill="#D293DB" fill-opacity="0.73"/>
<path fill-rule="evenodd" clip-rule="evenodd" d="M43.7475 3.37362C39.0977 -1.12454 31.7185 -1.12454 27.0687 3.37362C25.8877 4.51612 24.2456 5.04969 22.6186 4.81956C16.2129 3.91352 10.2429 8.25095 9.12519 14.6231C8.84128 16.2416 7.82638 17.6385 6.37484 18.4086C0.659989 21.4408 -1.62033 28.4589 1.22083 34.271C1.94246 35.7473 1.94246 37.4739 1.22083 38.9502C-1.62033 44.7624 0.65999 51.7805 6.37484 54.8126C7.82638 55.5828 8.84128 56.9797 9.12519 58.5982C10.2429 64.9703 16.2129 69.3077 22.6186 68.4017C24.2456 68.1715 25.8877 68.7051 27.0687 69.8476C31.7185 74.3458 39.0977 74.3458 43.7475 69.8476C44.9285 68.7051 46.5706 68.1715 48.1976 68.4017C54.6033 69.3077 60.5732 64.9703 61.691 58.5982C61.9749 56.9797 62.9898 55.5828 64.4413 54.8126C70.1562 51.7805 72.4365 44.7624 69.5954 38.9502C68.8737 37.4739 68.8737 35.7473 69.5954 34.271C72.4365 28.4589 70.1562 21.4408 64.4413 18.4086C62.9898 17.6385 61.9749 16.2416 61.691 14.6231C60.5732 8.25095 54.6033 3.91352 48.1976 4.81956C46.5706 5.04969 44.9285 4.51612 43.7475 3.37362ZM31.704 8.16511C33.7693 6.16718 37.0469 6.16718 39.1122 8.16511C41.7711 10.7374 45.4682 11.9386 49.1313 11.4205C51.9765 11.0181 54.6281 12.9446 55.1246 15.7749C55.7638 19.4188 58.0487 22.5638 61.3167 24.2977C63.8551 25.6445 64.8679 28.7617 63.606 31.3433C61.9813 34.6669 61.9813 38.5543 63.606 41.878C64.8679 44.4595 63.8551 47.5768 61.3167 48.9235C58.0487 50.6575 55.7638 53.8025 55.1246 57.4463C54.6281 60.2766 51.9765 62.2031 49.1313 61.8007C45.4682 61.2826 41.7711 62.4839 39.1122 65.0561C37.0469 67.054 33.7693 67.054 31.704 65.0561C29.0451 62.4839 25.3479 61.2826 21.6849 61.8007C18.8397 62.2031 16.1881 60.2766 15.6916 57.4463C15.0524 53.8025 12.7674 50.6575 9.49944 48.9235C6.96109 47.5768 5.94825 44.4595 7.2102 41.878C8.83489 38.5543 8.8349 34.6669 7.2102 31.3433C5.94825 28.7617 6.96109 25.6445 9.49943 24.2977C12.7674 22.5638 15.0524 19.4188 15.6916 15.7749C16.1881 12.9446 18.8397 11.0181 21.6849 11.4205C25.3479 11.9386 29.0451 10.7374 31.704 8.16511Z" fill="#D293DB" fill-opacity="0.73"/>
</svg>
