<svg width="543" height="103" viewBox="0 0 543 103" fill="none" xmlns="http://www.w3.org/2000/svg">
<path d="M168.27 93.1713C182.963 90.4233 196.768 87.839 210.598 85.2493C218.452 83.773 227.28 82.7641 235.737 81.584C246.259 80.1123 258.431 80.946 270.417 81.4427C310.53 83.1127 348.709 82.3917 385.756 80.3086C420.948 78.3316 454.538 75.3523 483.262 69.685C502.494 65.889 518.233 61.0578 526.712 54.2363C534.665 47.8567 529.421 41.4718 513.603 35.0542C493.345 26.8417 467.262 20.9744 438.7 16.1862C399.893 9.67387 359.926 6.45677 319.399 4.79907C259.999 2.36921 203.685 3.4858 150.167 7.61753C95.6226 11.8309 54.691 21.149 28.5683 35.7544C21.9863 39.436 18.6817 43.6055 20.2513 48.3099C22.8031 55.9735 38.8412 61.3449 60.3893 65.6544C71.8896 67.953 84.2182 69.4444 96.7706 70.3637C119.779 72.0537 142.658 74.0858 165.239 76.9573C167.372 77.2309 169.976 77.403 170.014 78.2889C170.037 79.0732 167.643 78.9885 165.754 78.9556C133.96 78.3352 101.95 77.9428 69.9777 73.5614C39.2743 69.3534 14.8283 62.8469 4.1603 52.756C-3.70243 45.3291 0.354695 38.8392 9.86158 32.9557C21.1718 25.9571 38.092 20.4384 57.2563 15.5604C91.4587 6.8545 132.79 7.60185 179.526 5.67225C223.583 3.8521 269.949 -1.52138 316.732 0.415084C370.814 2.65033 423.422 7.64057 472.626 18.3724C493.687 22.9615 512.795 28.1952 527.207 34.86C542.967 42.142 547.08 49.2038 538.402 56.0679C530.852 62.0395 518.068 66.6669 502.299 70.5196C479.726 76.0485 452.49 79.3138 423.541 81.705C376.108 85.6217 326.202 86.9565 273.347 85.0924C270.519 84.9897 267.672 84.821 264.827 84.631C253.641 83.8922 244.156 84.4 235.467 85.9793C211.228 90.3936 188.58 95.4288 164.997 100.093C160.745 100.932 156.102 97.2207 151.501 97.9051C147.367 98.5237 142.923 103.153 138.47 101.752C133.923 100.323 134.662 98.9133 137.221 97.7612C148.447 92.6875 159.863 87.6496 171.28 82.6117C172.875 81.9048 175.142 81.2694 178.694 81.9356C182.46 82.6465 181.401 83.5872 180.69 84.4389C178.75 86.7428 174.951 88.7001 171.438 90.7075C170.259 91.3737 168.435 91.9344 168.345 93.1482L168.27 93.1713Z" fill="#F05658"/>
</svg>
