<svg width="92" height="105" viewBox="0 0 92 105" fill="none" xmlns="http://www.w3.org/2000/svg">
<path d="M22.9891 81.2239C22.7266 81.7155 22.3596 82.5364 21.8663 83.2685C21.2055 84.2434 20.2571 84.7126 19.0542 84.3939C17.8887 84.0891 17.166 83.2962 17.0627 82.1122C16.9733 81.1437 16.933 80.1302 17.0929 79.1802C19.6951 64.3121 20.7197 49.2391 22.9662 34.3236C23.326 31.9549 23.9949 29.6164 24.5279 27.2698C24.7217 26.4269 24.7097 25.2557 25.9584 25.3706C27.1217 25.4854 27.087 26.6393 27.1647 27.4985C27.8049 33.9055 27.9734 40.3168 27.7932 46.7462C27.4914 57.5772 26.2676 68.2773 23.7329 78.8291C23.5639 79.5234 23.3164 80.1992 23.0055 81.209L22.9891 81.2239Z" fill="#F05658"/>
<path d="M77.3891 54.8693C71.4231 68.1676 63.8777 80.6506 54.9915 92.3645C53.7919 93.9391 52.4718 95.4375 50.6698 96.3795C49.5493 96.9637 48.3741 97.0757 47.3471 96.2124C46.4031 95.4114 46.3817 94.3208 46.7488 93.2477C47.0374 92.4084 47.34 91.5321 47.8145 90.7931C55.9923 77.9133 63.8308 64.8029 73.7609 53.0967C74.6922 52.001 75.6914 50.9514 76.6929 49.9237C77.1309 49.476 77.6673 49.0226 78.3716 49.3882C79.2152 49.8368 79.0027 50.5887 78.7647 51.268C78.346 52.4481 77.8711 53.6075 77.3891 54.8693Z" fill="#F05658"/>
<path d="M9.54929 79.4915C8.98075 80.7003 8.35279 81.5613 7.08872 81.5984C5.83401 81.639 5.06442 80.9129 4.62746 79.8473C4.39614 79.2783 4.25263 78.6471 4.17818 78.0309C2.64994 64.8309 0.480264 51.6881 0.0159991 38.3875C-0.0253533 37.321 0.0222678 36.2455 0.0569934 35.1756C0.0904037 34.305 -0.136999 33.1382 0.96687 32.9052C2.26857 32.6298 2.53566 33.9163 2.86625 34.7849C3.85218 37.3779 4.95635 39.9411 5.6227 42.6157C8.41988 53.9198 10.1355 65.3706 9.83317 77.0422C9.81496 77.929 9.62938 78.8064 9.54929 79.4915Z" fill="#F05658"/>
<path d="M91.1442 75.2711C90.9461 75.5658 90.6754 76.0228 90.3579 76.4625C83.2686 86.2971 74.8938 94.9099 65.1179 102.185C63.4632 103.412 61.5635 105.086 59.587 103.156C57.546 101.172 59.0212 99.0999 60.4234 97.4425C68.5202 87.907 77.8392 79.7588 88.828 73.5317C89.5364 73.1314 90.2882 72.5895 91.0895 73.1486C91.8417 73.6685 91.4772 74.4272 91.1535 75.2746L91.1442 75.2711Z" fill="#F05658"/>
<path d="M42.072 59.5947C43.7782 55.1276 45.2064 51.5562 47.0301 48.1522C47.4836 47.3003 47.8848 46.0821 49.0422 46.2684C50.4419 46.4916 49.9973 47.8514 49.9136 48.7139C48.7714 61.3258 46.3583 73.657 41.1133 85.3193C40.7499 86.1309 40.2648 86.8976 39.7492 87.6319C39.0123 88.6944 38.1478 89.6991 36.6278 89.1476C35.2202 88.6375 34.8747 87.4166 34.9002 86.0911C34.9702 83.1948 35.9355 80.4719 36.7088 77.72C38.4913 71.347 39.7917 64.8377 42.0662 59.5821L42.072 59.5947Z" fill="#F05658"/>
<path d="M85.3056 36.101C83.3223 35.3361 81.8343 31.0647 82.7851 28.883C83.6069 27.0111 86.0057 26.1848 88.0732 27.0649C90.3805 28.0443 91.4377 30.8424 90.4503 33.3995C89.6025 35.6192 87.2385 36.8579 85.2927 36.1068L85.3056 36.101Z" fill="#F05658"/>
<path d="M29.3463 5.03274C28.353 7.74529 25.8905 9.32587 23.7843 8.46295C21.7906 7.64157 21.2311 6.05766 21.9114 4.08079C22.8333 1.41541 25.6226 -0.517363 27.5568 0.12432C29.4349 0.745232 30.1708 2.7623 29.3463 5.03274Z" fill="#F05658"/>
</svg>
