<svg width="95" height="44" viewBox="0 0 95 44" fill="none" xmlns="http://www.w3.org/2000/svg">
<path d="M49.7717 26.7976C52.9429 29.9303 56.4212 31.4862 59.6072 33.6631C65.5506 37.7171 72.5275 38.3051 79.4562 39.1052C83.6641 39.5888 87.9232 39.8922 91.9684 41.027C92.5235 41.1805 93.0815 41.3246 93.6155 41.5231C94.0981 41.6952 94.7889 41.8396 94.5962 42.7499C94.3703 43.8254 93.6282 43.572 93.1486 43.6178C88.8837 44.0148 84.7212 43.845 80.5707 43.617C75.0236 43.3123 69.3048 43.563 64.2337 41.4248C57.7056 38.6744 51.5059 35.108 46.2406 29.5627C45.5919 28.8737 44.9884 28.3126 43.969 28.5298C37.394 29.9579 31.2435 29.092 25.1382 28.1268C20.1128 27.3351 15.1325 26.3408 10.3964 24.5658C7.33443 23.4089 4.35086 22.0288 1.72896 19.812C1.27337 19.4316 0.832855 19.0042 0.431524 18.5168C0.0603675 18.0596 -0.223398 17.4129 0.24384 16.5577C0.732177 15.6574 1.23296 15.8765 1.69758 16.2288C11.1259 23.3488 22.4765 24.3588 33.7006 25.7628C36.6175 26.1306 39.6097 26.2017 43.0088 25.5434C41.883 23.2382 40.8628 21.2657 39.921 19.2146C38.7348 16.622 37.5244 14.0424 37.0165 10.8055C36.4755 7.34116 37.1923 4.24057 38.9923 2.04777C40.7681 -0.111284 43.3891 -0.786546 45.2297 1.11283C46.9405 2.87855 48.0208 4.33282 51.1116 1.61547C54.6275 -1.47454 60.7397 1.80625 62.1859 6.15352C63.2155 9.25468 62.3302 13.769 59.8883 17.6297C57.6213 21.2148 54.9256 23.7153 51.9581 25.4696C51.361 25.8193 50.773 26.2028 49.7778 26.8201L49.7717 26.7976ZM56.005 4.51391C55.4831 4.42249 54.8165 4.22369 54.1167 4.21071C51.028 4.15055 49.9396 5.65777 49.7209 10.061C49.637 11.8111 50.0872 14.1108 48.1239 14.9718C46.3325 15.7523 46.4825 13.2794 46.2196 11.7614C45.733 8.9545 45.0806 6.3332 43.3578 4.8529C42.6186 4.21821 41.7196 3.72958 40.7095 4.95153C39.7206 6.14913 39.7995 7.53715 40.0231 8.82598C40.0926 9.20926 40.1681 9.59443 40.2768 9.93836C41.8501 15.131 44.1349 19.5142 46.7875 23.4757C47.3096 24.2488 47.9793 24.3762 48.8448 24.0178C51.4415 22.9424 53.9717 21.4331 56.2783 18.8622C58.4492 16.445 60.3756 13.6309 60.3895 9.92759C60.4003 6.19235 58.2373 5.35883 56.011 4.5158L56.005 4.51391Z" fill="#F05658"/>
</svg>
