<svg width="21" height="21" viewBox="0 0 21 21" fill="none" xmlns="http://www.w3.org/2000/svg">
<path d="M17.3498 0H3C1.35 0 0 1.35 0 3V17.3512C0 19.0012 1.35 20.3512 3 20.3512H17.3512C19.0012 20.3512 20.3512 19.0012 20.3512 17.3512V3C20.3498 1.35 19.0012 0 17.3498 0ZM17.157 10.8622H14.742V19.5998H11.1285V10.8622H9.321V7.85025H11.1285V6.04275C11.1285 3.58575 12.1485 2.124 15.051 2.124H17.4637V5.13525H15.9547C14.8267 5.13525 14.7517 5.5575 14.7517 6.34275L14.742 7.85025H17.4757L17.157 10.8622Z" fill="#4D5761"/>
</svg>
