<svg width="16" height="12" viewBox="0 0 16 12" fill="none" xmlns="http://www.w3.org/2000/svg">
<path d="M15.6704 1.76374C15.5815 1.42103 15.4032 1.10806 15.1537 0.85682C14.9042 0.60558 14.5925 0.425074 14.2504 0.333744C12.1765 0.0878938 10.0887 -0.0223404 8.00042 0.00374402C5.91213 -0.0223404 3.82436 0.0878938 1.75042 0.333744C1.40833 0.425074 1.09663 0.60558 0.847144 0.85682C0.597661 1.10806 0.419346 1.42103 0.330419 1.76374C0.103394 3.03772 -0.00706255 4.32972 0.000419326 5.62374C-0.00772318 6.92442 0.102734 8.22313 0.330419 9.50374C0.423954 9.84093 0.604317 10.1477 0.853494 10.3933C1.10267 10.639 1.41194 10.815 1.75042 10.9037C3.82436 11.1496 5.91213 11.2598 8.00042 11.2337C10.0887 11.2598 12.1765 11.1496 14.2504 10.9037C14.5889 10.815 14.8982 10.639 15.1473 10.3933C15.3965 10.1477 15.5769 9.84093 15.6704 9.50374C15.8981 8.22313 16.0086 6.92442 16.0004 5.62374C16.0079 4.32972 15.8974 3.03772 15.6704 1.76374ZM6.36042 8.01374V3.25374L10.5504 5.62374L6.36042 8.00374V8.01374Z" fill="#4D5761"/>
</svg>
